<svg width="457" height="457" viewBox="0 0 457 457" fill="none" xmlns="http://www.w3.org/2000/svg">
<rect width="457" height="457" rx="60" fill="url(#paint0_linear_43_2)"/>
<path d="M192.438 97.9844H119.312C113.656 97.9844 108.231 100.231 104.231 104.231C100.231 108.231 97.9844 113.656 97.9844 119.312V192.438C97.9844 195.238 98.536 198.012 99.6079 200.599C100.68 203.187 102.251 205.538 104.231 207.519C106.212 209.499 108.563 211.07 111.151 212.142C113.738 213.214 116.512 213.766 119.312 213.766H192.438C195.238 213.766 198.012 213.214 200.599 212.142C203.187 211.07 205.538 209.499 207.519 207.519C209.499 205.538 211.07 203.187 212.142 200.599C213.214 198.012 213.766 195.238 213.766 192.438V119.312C213.766 116.512 213.214 113.738 212.142 111.151C211.07 108.563 209.499 106.212 207.519 104.231C205.538 102.251 203.187 100.68 200.599 99.6079C198.012 98.536 195.238 97.9844 192.438 97.9844ZM195.484 192.438C195.484 193.246 195.163 194.021 194.592 194.592C194.021 195.163 193.246 195.484 192.438 195.484H119.312C118.504 195.484 117.729 195.163 117.158 194.592C116.587 194.021 116.266 193.246 116.266 192.438V119.312C116.266 118.504 116.587 117.729 117.158 117.158C117.729 116.587 118.504 116.266 119.312 116.266H192.438C193.246 116.266 194.021 116.587 194.592 117.158C195.163 117.729 195.484 118.504 195.484 119.312V192.438ZM338.688 97.9844H265.562C259.906 97.9844 254.481 100.231 250.481 104.231C246.481 108.231 244.234 113.656 244.234 119.312V192.438C244.234 195.238 244.786 198.012 245.858 200.599C246.93 203.187 248.501 205.538 250.481 207.519C252.462 209.499 254.813 211.07 257.401 212.142C259.988 213.214 262.762 213.766 265.562 213.766H338.688C341.488 213.766 344.262 213.214 346.849 212.142C349.437 211.07 351.788 209.499 353.769 207.519C355.749 205.538 357.32 203.187 358.392 200.599C359.464 198.012 360.016 195.238 360.016 192.438V119.312C360.016 113.656 357.769 108.231 353.769 104.231C349.769 100.231 344.344 97.9844 338.688 97.9844ZM341.734 192.438C341.734 193.246 341.413 194.021 340.842 194.592C340.271 195.163 339.496 195.484 338.688 195.484H265.562C264.754 195.484 263.979 195.163 263.408 194.592C262.837 194.021 262.516 193.246 262.516 192.438V119.312C262.516 118.504 262.837 117.729 263.408 117.158C263.979 116.587 264.754 116.266 265.562 116.266H338.688C339.496 116.266 340.271 116.587 340.842 117.158C341.413 117.729 341.734 118.504 341.734 119.312V192.438ZM192.438 244.234H119.312C113.656 244.234 108.231 246.481 104.231 250.481C100.231 254.481 97.9844 259.906 97.9844 265.562V338.688C97.9844 344.344 100.231 349.769 104.231 353.769C108.231 357.769 113.656 360.016 119.312 360.016H192.438C195.238 360.016 198.012 359.464 200.599 358.392C203.187 357.32 205.538 355.749 207.519 353.769C209.499 351.788 211.07 349.437 212.142 346.849C213.214 344.262 213.766 341.488 213.766 338.688V265.562C213.766 262.762 213.214 259.988 212.142 257.401C211.07 254.813 209.499 252.462 207.519 250.481C205.538 248.501 203.187 246.93 200.599 245.858C198.012 244.786 195.238 244.234 192.438 244.234ZM195.484 338.688C195.484 339.496 195.163 340.271 194.592 340.842C194.021 341.413 193.246 341.734 192.438 341.734H119.312C118.504 341.734 117.729 341.413 117.158 340.842C116.587 340.271 116.266 339.496 116.266 338.688V265.562C116.266 264.754 116.587 263.979 117.158 263.408C117.729 262.837 118.504 262.516 119.312 262.516H192.438C193.246 262.516 194.021 262.837 194.592 263.408C195.163 263.979 195.484 264.754 195.484 265.562V338.688ZM338.688 244.234H265.562C259.906 244.234 254.481 246.481 250.481 250.481C246.481 254.481 244.234 259.906 244.234 265.562V338.688C244.234 344.344 246.481 349.769 250.481 353.769C254.481 357.769 259.906 360.016 265.562 360.016H338.688C344.344 360.016 349.769 357.769 353.769 353.769C357.769 349.769 360.016 344.344 360.016 338.688V265.562C360.016 259.906 357.769 254.481 353.769 250.481C349.769 246.481 344.344 244.234 338.688 244.234ZM341.734 338.688C341.734 339.496 341.413 340.271 340.842 340.842C340.271 341.413 339.496 341.734 338.688 341.734H265.562C264.754 341.734 263.979 341.413 263.408 340.842C262.837 340.271 262.516 339.496 262.516 338.688V265.562C262.516 264.754 262.837 263.979 263.408 263.408C263.979 262.837 264.754 262.516 265.562 262.516H338.688C339.496 262.516 340.271 262.837 340.842 263.408C341.413 263.979 341.734 264.754 341.734 265.562V338.688Z" fill="url(#paint1_linear_43_2)"/>
<defs>
<linearGradient id="paint0_linear_43_2" x1="228.5" y1="0" x2="228.5" y2="457" gradientUnits="userSpaceOnUse">
<stop stop-color="#262626"/>
<stop offset="1"/>
</linearGradient>
<linearGradient id="paint1_linear_43_2" x1="229" y1="97.9844" x2="229" y2="360.016" gradientUnits="userSpaceOnUse">
<stop stop-color="#6D6D6D"/>
<stop offset="1" stop-color="white"/>
</linearGradient>
</defs>
</svg>
